<?xml version="1.0" encoding="UTF-8"?>
<svg id="Layer_1" data-name="Layer 1" xmlns="http://www.w3.org/2000/svg" viewBox="0 0 256 256">
  <defs>
    <style>
      .cls-1 {
        fill: #020ab7;
      }

      .cls-2 {
        fill: #fff;
      }
    </style>
  </defs>
  <rect class="cls-2" width="256" height="256"/>
  <path class="cls-1" d="M225.17,140.62c0-4.04,1.01-6.06,7.32-6.06.38,0,.51-.63.51-1.51,0-1.64-.38-2.02-1.01-2.02-.76,0-6.82.63-13.63.63-10.86,0-12.88-.63-13.26-.63-.25,0-.25.25-.25.76v2.65c0,.5.25.76,4.67.76,7.07,0,7.57.88,7.57,9.85,0,6.69-3.79,10.1-14.01,10.1-13.38,0-24.49-10.86-24.49-27.4,0-13.51,8.96-26.89,24.62-26.89,8.08,0,16.54,4.8,17.93,13.89.38.13.88.13,1.64.13s1.14,0,1.89-.13c-.13-1.77-.25-3.79-.25-7.32,0-1.77.13-3.28.25-5.68-4.67-2.4-14.39-5.05-23.73-5.05-20.07,0-33.71,15.02-33.71,32.57,0,14.9,12.25,30.05,35.1,30.05,10.73,0,22.98-5.18,22.98-7.07,0-.25-.13-1.51-.13-2.15v-9.47ZM109.37,146.31c0,7.2-1.14,8.33-9.85,8.33-.88,0-1.01.13-1.01,1.51,0,1.51.13,2.02,1.01,2.02,1.89,0,6.94-.63,14.64-.63s11.87.63,13.26.63c.51,0,.76-.63.76-1.51,0-1.01-.63-2.02-.88-2.02h-1.26c-6.82,0-7.07-1.26-7.07-13.38v-10.23l3.91-3.41,16.29,18.68c1.39,1.64,3.66,4.17,3.66,6.19,0,1.77-1.26,2.15-5.81,2.15-1.01,0-1.39.38-1.39,1.77,0,.76.13,1.26.5,1.77,3.66-.25,8.58-.63,14.14-.63,6.19,0,11.87.63,12.88.63.5,0,.76-.38.76-2.02,0-1.01-.38-1.51-1.26-1.51-3.91,0-5.81-1.39-8.21-4.29l-24.24-29.16,11.36-9.97c9.09-7.95,12.12-9.85,14.64-9.85h1.51c.88,0,1.01-.38,1.01-1.51,0-1.64-.13-2.02-.88-2.02-1.64,0-4.42.63-10.48.63-5.3,0-8.71-.63-10.23-.63-1.01,0-1.26.63-1.26,1.89,0,1.01.25,1.64.5,1.64,5.56,0,6.31.13,6.31,1.51,0,1.14-.25,2.02-4.17,5.56l-19.57,17.67v-17.93c0-5.93.38-6.82,7.57-6.82,1.01,0,1.26-.13,1.26-1.01,0-2.4-.38-2.53-1.51-2.53-4.04,0-8.08.63-12.12.63-4.92,0-9.72-.63-14.64-.63-.88,0-1.01.51-1.01,2.02,0,1.39.13,1.51,1.01,1.51,8.71,0,9.85,1.14,9.85,8.33v36.61ZM35.86,146.31c0,7.2-1.14,8.33-9.85,8.33-.88,0-1.01.13-1.01,1.51,0,1.51.13,2.02,1.01,2.02,1.89,0,6.94-.63,14.64-.63s11.87.63,13.26.63c.51,0,.76-.63.76-1.51,0-1.01-.63-2.02-.88-2.02h-1.26c-6.82,0-7.07-1.26-7.07-13.38v-10.23l3.91-3.41,16.29,18.68c1.39,1.64,3.66,4.17,3.66,6.19,0,1.77-1.26,2.15-5.81,2.15-1.01,0-1.39.38-1.39,1.77,0,.76.13,1.26.51,1.77,3.66-.25,8.58-.63,14.14-.63,6.19,0,11.87.63,12.88.63.51,0,.76-.38.76-2.02,0-1.01-.38-1.51-1.26-1.51-3.91,0-5.81-1.39-8.21-4.29l-24.24-29.16,11.36-9.97c9.09-7.95,12.12-9.85,14.65-9.85h1.51c.88,0,1.01-.38,1.01-1.51,0-1.64-.13-2.02-.88-2.02-1.64,0-4.42.63-10.48.63-5.3,0-8.71-.63-10.23-.63-1.01,0-1.26.63-1.26,1.89,0,1.01.25,1.64.51,1.64,5.55,0,6.31.13,6.31,1.51,0,1.14-.25,2.02-4.17,5.56l-19.57,17.67v-17.93c0-5.93.38-6.82,7.57-6.82,1.01,0,1.26-.13,1.26-1.01,0-2.4-.38-2.53-1.51-2.53-4.04,0-8.08.63-12.12.63-4.92,0-9.72-.63-14.64-.63-.88,0-1.01.51-1.01,2.02,0,1.39.13,1.51,1.01,1.51,8.71,0,9.85,1.14,9.85,8.33v36.61Z"/>
</svg>